<?xml version="1.0" standalone="no"?>
<!DOCTYPE svg PUBLIC "-//W3C//DTD SVG 20010904//EN"
 "http://www.w3.org/TR/2001/REC-SVG-20010904/DTD/svg10.dtd">
<svg version="1.0" xmlns="http://www.w3.org/2000/svg"
 width="1024.000000pt" height="1024.000000pt" viewBox="0 0 1024.000000 1024.000000"
 preserveAspectRatio="xMidYMid meet">

<g transform="translate(0.000000,1024.000000) scale(0.100000,-0.100000)"
fill="#000000" stroke="none">
<path d="M4550 9294 c-33 -29 -48 -81 -31 -113 7 -11 26 -28 43 -37 30 -15 34
-15 66 2 86 46 71 151 -25 169 -14 2 -34 -6 -53 -21z"/>
<path d="M5160 9291 c-29 -55 -2 -131 48 -131 32 0 65 48 58 85 -11 57 -83 88
-106 46z"/>
<path d="M5433 9282 c-34 -23 -36 -87 -2 -118 42 -38 103 16 83 73 -9 28 -62
57 -81 45z"/>
<path d="M6279 9151 c-33 -32 -39 -45 -39 -79 0 -36 5 -45 40 -73 l40 -32 0
-183 c0 -103 -4 -185 -9 -189 -6 -3 -31 25 -57 62 -69 99 -179 244 -210 276
-23 25 -26 34 -20 74 10 75 -42 143 -111 143 -52 0 -103 -54 -103 -108 0 -54
37 -99 88 -107 71 -12 79 -15 89 -37 6 -13 50 -70 97 -127 76 -90 116 -148
116 -165 0 -3 -18 1 -41 9 -67 24 -198 106 -266 168 -35 31 -67 57 -71 57 -4
0 -18 -7 -30 -16 -28 -19 -29 -64 -3 -88 11 -10 97 -56 193 -102 95 -46 184
-93 198 -105 l25 -20 -126 5 c-69 3 -147 10 -175 15 -27 5 -66 12 -87 16 -30
5 -40 12 -51 40 -17 40 -68 75 -109 75 -45 0 -87 -51 -87 -105 0 -61 35 -102
96 -111 40 -6 49 -3 72 18 l27 25 184 -23 c101 -13 185 -25 188 -27 4 -5 -44
-20 -222 -71 -99 -29 -138 -52 -143 -85 -5 -32 20 -35 84 -8 33 14 99 37 148
52 49 15 126 43 170 62 108 47 147 43 247 -21 41 -27 129 -84 197 -128 120
-77 124 -79 148 -64 14 10 24 26 24 40 0 20 -14 32 -77 67 -43 23 -105 61
-138 84 -33 23 -75 50 -92 59 -18 9 -33 21 -33 26 0 6 49 10 122 10 67 0 159
5 205 12 78 11 85 11 128 -10 25 -12 56 -22 68 -22 53 0 97 63 97 139 0 72
-79 113 -149 77 -23 -13 -35 -29 -71 -106 -5 -12 -42 -18 -156 -27 -82 -6
-173 -15 -201 -19 -49 -6 -53 -5 -53 13 0 12 22 38 53 64 28 24 84 74 124 111
59 56 78 68 105 68 59 0 108 54 108 120 0 42 -15 67 -50 85 -43 22 -76 18
-111 -13 -25 -23 -32 -38 -38 -87 -7 -59 -9 -62 -87 -140 -45 -44 -99 -90
-122 -103 l-41 -22 4 184 3 185 31 47 c35 53 37 70 16 119 -27 66 -99 73 -156
16z"/>
<path d="M4880 9144 c-15 -38 -12 -58 11 -88 26 -33 44 -33 80 3 35 36 36 54
4 86 -34 35 -82 34 -95 -1z"/>
<path d="M3808 9053 c-25 -6 -22 -18 7 -31 14 -7 47 -32 74 -57 62 -58 81 -59
80 -2 -1 55 -10 79 -28 68 -7 -5 -24 -3 -40 4 -33 16 -71 23 -93 18z"/>
<path d="M4274 9018 c-45 -14 -78 -88 -43 -96 15 -3 109 84 109 101 0 9 -27 7
-66 -5z"/>
<path d="M5112 8961 c-7 -4 -15 -24 -19 -44 -4 -29 -1 -40 20 -61 32 -32 40
-32 67 -4 22 24 27 80 8 95 -20 15 -62 23 -76 14z"/>
<path d="M5337 8892 c-35 -39 -5 -102 49 -102 31 0 61 58 45 89 -19 35 -68 41
-94 13z"/>
<path d="M4886 8878 c-9 -12 -16 -29 -16 -38 0 -27 30 -60 56 -60 31 0 64 33
64 63 0 53 -75 77 -104 35z"/>
<path d="M3133 8750 c-30 -12 -54 -52 -55 -90 -2 -78 114 -124 161 -63 43 54
36 114 -18 146 -32 19 -54 20 -88 7z"/>
<path d="M4002 8733 c-18 -9 -45 -31 -59 -49 -93 -123 38 -279 181 -215 62 27
88 70 83 137 -4 61 -28 97 -83 124 -49 24 -78 25 -122 3z m104 -81 c18 -11 27
-68 14 -91 -8 -16 -21 -21 -48 -21 -47 0 -62 14 -62 56 0 48 58 81 96 56z"/>
<path d="M4515 8739 c-4 -6 -5 -13 -2 -16 7 -7 27 6 27 18 0 12 -17 12 -25 -2z"/>
<path d="M3620 8702 c0 -10 22 -32 32 -32 12 0 -2 28 -18 34 -8 3 -14 2 -14
-2z"/>
<path d="M5115 8559 c-22 -16 -132 -121 -245 -232 -113 -111 -280 -272 -370
-357 -91 -85 -199 -189 -240 -231 -41 -42 -230 -226 -420 -409 -746 -722 -820
-797 -820 -837 0 -35 100 -135 183 -182 54 -31 59 -32 81 -17 13 8 100 89 194
181 127 123 171 161 176 149 3 -8 6 -450 6 -980 0 -1039 -1 -1017 51 -1045 18
-9 161 -11 620 -7 335 3 604 1 612 -4 14 -7 12 -15 -13 -54 -33 -52 -50 -120
-50 -199 0 -30 -4 -55 -9 -55 -5 0 -31 18 -57 40 -59 49 -138 75 -202 66 -94
-13 -184 -85 -213 -173 -16 -49 -6 -150 19 -199 35 -69 147 -148 267 -188 16
-6 4 -14 -53 -36 -153 -62 -223 -128 -242 -230 -30 -158 91 -330 232 -330 58
0 133 27 190 69 23 17 45 31 49 31 3 0 9 -31 12 -70 11 -131 79 -225 185 -256
47 -14 57 -14 101 1 100 33 171 125 171 221 0 27 3 59 6 71 6 21 7 21 49 -12
82 -62 200 -84 276 -52 43 18 88 63 105 104 16 38 18 130 4 169 -11 29 -5 36
70 79 73 42 74 148 2 224 -28 29 -53 43 -100 56 -34 10 -65 21 -68 26 -2 5 13
19 34 33 51 32 90 79 120 144 20 45 23 63 18 105 -10 71 -36 126 -78 163 -50
44 -98 58 -179 51 -74 -6 -113 -22 -175 -73 l-42 -33 -4 87 c-6 126 -59 215
-152 258 -70 33 -122 31 -193 -6 -31 -16 -58 -30 -58 -30 0 0 -1 8 -2 18 -1 9
-6 29 -11 43 l-11 26 -593 8 c-326 4 -594 8 -595 9 -2 1 -3 461 -3 1022 l-1
1019 163 160 c90 88 287 279 438 425 151 146 399 386 551 533 152 147 281 267
286 267 5 0 22 -14 39 -31 16 -17 153 -147 304 -288 151 -140 426 -404 610
-586 184 -181 368 -362 409 -402 64 -63 72 -75 65 -95 -5 -13 -10 -474 -11
-1025 l-3 -1003 -318 -1 c-502 -1 -920 -13 -932 -25 -6 -6 -8 -18 -5 -26 15
-39 32 -40 678 -41 589 -2 627 -1 644 16 16 16 19 47 24 305 3 158 4 555 1
882 -5 555 1 850 17 850 3 0 88 -78 188 -174 100 -96 192 -180 204 -186 19
-10 30 -6 89 34 104 71 160 127 160 160 0 41 -89 142 -317 360 -109 104 -274
264 -368 355 l-170 166 -5 398 c-4 339 -7 399 -20 407 -8 5 -81 10 -161 10
-80 0 -173 2 -205 6 -33 3 -66 1 -74 -5 -12 -8 -16 -42 -21 -155 -3 -80 -8
-148 -12 -152 -3 -4 -30 15 -60 42 -129 118 -644 603 -662 624 -26 28 -68 50
-97 50 -13 0 -41 -14 -63 -31z m245 -241 c96 -89 281 -260 410 -381 129 -121
249 -231 268 -245 45 -35 58 -20 55 66 -2 37 0 127 3 200 l6 132 144 0 144 0
1 -57 c1 -32 1 -200 -1 -374 l-2 -316 37 -42 c21 -23 191 -189 379 -369 402
-385 436 -419 436 -432 0 -12 -111 -100 -127 -100 -6 0 -328 314 -715 698
-387 383 -766 751 -843 817 -77 66 -173 154 -214 195 -88 88 -139 130 -157
130 -28 0 -305 -266 -1735 -1667 -91 -90 -173 -163 -183 -163 -31 0 -136 70
-136 91 0 9 35 49 78 89 145 139 287 276 507 490 339 331 840 816 940 910 50
46 162 155 250 241 154 149 263 249 275 249 3 0 84 -73 180 -162z m-178 -3794
c57 -29 117 -139 118 -215 0 -44 -26 -128 -71 -227 -25 -54 -22 -77 11 -77 20
0 34 14 68 65 141 215 314 280 418 157 24 -28 26 -37 22 -98 -3 -57 -8 -74
-34 -105 -55 -69 -96 -94 -180 -113 -44 -10 -95 -25 -114 -33 -19 -8 -45 -19
-58 -24 -18 -7 -10 -10 35 -12 183 -8 341 -56 372 -113 29 -52 -13 -119 -74
-119 -41 0 -42 -5 -14 -63 31 -63 20 -149 -23 -189 -26 -24 -38 -28 -87 -28
-70 0 -144 34 -193 88 -44 49 -138 206 -138 230 0 11 16 43 35 71 61 88 44
187 -43 246 -58 39 -161 29 -213 -21 -62 -59 -74 -151 -30 -234 12 -23 21 -47
21 -55 0 -18 -147 -202 -197 -245 -78 -69 -189 -94 -247 -57 -33 22 -76 109
-76 155 0 98 93 175 302 250 64 24 103 43 103 52 0 8 -43 30 -114 57 -118 44
-147 62 -218 133 -77 75 -90 183 -30 237 76 70 152 70 249 0 73 -51 116 -97
160 -169 25 -40 69 -78 93 -78 14 0 2 68 -26 137 -71 175 -39 351 73 406 34
17 52 15 100 -9z m12 -635 c36 -43 35 -91 -3 -130 -48 -48 -112 -34 -146 32
-14 27 -14 33 1 65 34 71 103 87 148 33z m-24 -279 c17 -18 40 -65 56 -113 79
-236 -24 -461 -176 -382 -57 30 -92 107 -91 205 0 68 11 118 48 210 14 36 29
75 34 88 7 18 16 22 55 22 38 0 51 -5 74 -30z"/>
<path d="M7335 8566 c-34 -34 -41 -71 -22 -112 19 -40 54 -52 98 -33 30 12 61
60 54 83 -2 6 -6 23 -9 37 -11 49 -82 64 -121 25z"/>
<path d="M4460 8511 c0 -4 15 -22 34 -40 35 -33 56 -29 37 8 -11 19 -71 47
-71 32z"/>
<path d="M2625 8354 c-45 -23 -93 -73 -116 -122 -18 -37 -21 -57 -17 -133 4
-76 2 -89 -11 -84 -94 36 -174 23 -237 -40 -73 -73 -81 -191 -23 -313 57 -116
213 -213 379 -233 52 -6 101 -13 108 -15 9 -2 5 -21 -13 -71 -14 -37 -40 -119
-57 -182 -30 -106 -32 -129 -32 -261 0 -135 2 -150 28 -220 58 -153 122 -245
168 -238 33 4 28 35 -20 138 -86 183 -104 285 -78 435 9 50 25 118 36 153 22
71 80 212 86 212 3 0 21 -9 42 -19 20 -10 102 -40 182 -66 174 -56 281 -68
373 -41 122 35 187 139 142 226 -15 29 -15 30 24 49 73 38 106 104 99 201 -5
65 -31 108 -95 157 -32 25 -45 28 -112 28 -63 0 -86 -5 -133 -28 -31 -15 -69
-42 -83 -58 -35 -42 -31 -23 8 42 19 30 50 81 71 114 41 66 56 112 56 168 0
148 -171 256 -306 192 -58 -27 -120 -89 -144 -142 l-17 -38 -17 52 c-18 54
-83 125 -132 143 -39 15 -125 12 -159 -6z m151 -103 c18 -11 41 -40 54 -66 21
-43 22 -56 16 -149 -5 -83 -28 -258 -63 -478 -3 -21 -8 -38 -12 -38 -11 0 -79
152 -104 235 -91 289 -101 369 -62 446 19 35 72 69 110 69 17 0 44 -9 61 -19z
m471 -7 c57 -36 71 -111 34 -181 -18 -36 -119 -184 -263 -388 -68 -96 -135
-175 -149 -175 -29 0 80 482 142 627 49 116 155 168 236 117z m-774 -341 c26
-19 47 -47 71 -97 48 -101 106 -225 123 -265 l14 -34 -41 6 c-58 8 -199 77
-250 123 -75 67 -100 110 -100 168 0 65 16 96 60 119 41 21 70 16 123 -20z
m1050 -87 c43 -18 67 -56 67 -107 0 -34 -6 -47 -34 -74 l-34 -32 -188 -6
c-104 -4 -204 -11 -223 -17 -19 -5 -37 -8 -39 -6 -12 13 130 186 153 186 5 0
46 16 90 35 88 38 152 45 208 21z m-136 -301 c47 -7 93 -44 93 -75 0 -59 -74
-101 -182 -103 -47 -1 -85 6 -153 30 -49 18 -116 39 -147 48 -32 8 -58 19 -58
24 0 20 81 69 133 80 35 7 257 5 314 -4z"/>
<path d="M7004 8301 c-12 -5 -31 -21 -42 -36 -29 -36 -20 -97 26 -190 64 -129
132 -212 423 -522 42 -45 118 -142 168 -217 87 -129 207 -353 195 -365 -5 -5
-52 42 -244 245 -138 146 -276 225 -399 226 -62 0 -99 -17 -129 -62 -64 -94
22 -238 198 -331 66 -36 135 -62 326 -124 94 -30 205 -71 247 -90 l76 -35 22
-73 c42 -141 67 -253 74 -332 l7 -80 -37 70 c-105 197 -235 319 -353 331 -57
6 -88 -9 -120 -56 -20 -29 -23 -44 -19 -86 3 -28 14 -69 25 -90 27 -52 132
-160 212 -216 60 -43 258 -148 278 -148 4 0 18 -9 31 -21 20 -19 22 -27 16
-88 -14 -141 -37 -280 -60 -363 -30 -104 -30 -110 -6 -132 31 -28 60 -12 86
47 38 85 56 190 62 372 l5 170 57 60 c100 105 264 342 340 491 33 64 43 97 48
152 7 80 -8 117 -60 147 -171 101 -302 -54 -368 -435 -24 -140 -32 -230 -20
-230 10 0 9 -5 66 223 58 232 110 338 189 386 41 26 77 20 105 -15 57 -72 20
-209 -121 -455 -16 -28 -18 -31 -68 -95 -37 -48 -95 -84 -135 -84 -8 0 -18 -8
-24 -17 -8 -15 -10 -14 -16 12 -4 17 -9 37 -11 45 -2 8 -6 36 -9 61 -6 47 -32
190 -59 315 -9 39 -25 91 -36 115 -26 58 -25 73 9 122 30 45 76 132 92 175 8
22 3 20 -27 -15 -19 -24 -42 -43 -50 -43 -8 0 -14 -4 -14 -9 0 -5 -10 -11 -22
-14 -13 -2 -31 -8 -41 -12 -17 -7 -18 -2 -16 72 1 44 -1 85 -5 91 -3 6 -2 13
4 17 5 3 10 39 10 79 0 120 33 279 70 337 37 57 84 99 110 99 26 0 80 -49 96
-87 8 -18 14 -56 14 -86 0 -55 -31 -191 -54 -238 -12 -24 -11 -26 5 -22 34 9
89 198 89 305 0 110 -73 186 -168 175 -66 -7 -131 -76 -163 -173 -21 -62 -23
-91 -26 -284 -1 -118 -3 -226 -3 -240 0 -24 -33 36 -96 178 -13 29 -44 84 -70
122 l-46 69 21 56 c25 66 24 63 9 62 -61 -2 -86 5 -96 26 -11 20 -11 18 -6
-12 8 -45 -4 -36 -70 53 -56 76 -100 116 -261 239 -139 105 -197 176 -230 281
-16 51 -16 53 6 95 12 23 33 47 46 52 38 14 94 -6 149 -54 42 -36 46 -38 27
-12 -30 43 -73 85 -105 101 -36 19 -107 26 -134 15z m212 -936 c99 -29 313
-186 464 -339 l64 -66 -59 0 c-87 1 -352 62 -428 100 -67 33 -168 123 -194
175 -31 58 -15 106 42 131 39 17 51 17 111 -1z m419 -749 c68 -32 146 -117
250 -269 48 -71 85 -130 83 -132 -1 -2 -20 -7 -40 -13 -83 -23 -217 44 -335
167 -116 121 -141 195 -82 245 38 32 60 32 124 2z"/>
<path d="M4220 8265 c-7 -8 -10 -25 -6 -40 5 -19 13 -25 34 -25 15 0 46 -9 67
-20 57 -29 57 -8 -1 51 -50 51 -73 59 -94 34z"/>
<path d="M3906 8236 c-45 -42 -46 -58 -4 -49 23 4 34 2 44 -11 11 -15 13 -11
22 31 16 74 -4 84 -62 29z"/>
<path d="M7626 8228 c-54 -54 -68 -115 -73 -318 -2 -96 0 -193 5 -215 7 -29 8
-6 4 80 -5 128 9 244 33 282 14 20 22 22 101 20 97 -2 116 9 107 65 -11 74
-39 104 -107 115 -31 5 -40 1 -70 -29z"/>
<path d="M4027 8019 c7 -7 15 -10 18 -7 3 3 -2 9 -12 12 -14 6 -15 5 -6 -5z"/>
<path d="M7370 7905 c0 -5 5 -17 10 -25 5 -8 10 -10 10 -5 0 6 -5 17 -10 25
-5 8 -10 11 -10 5z"/>
<path d="M3869 7841 c-39 -39 -40 -96 -4 -135 21 -23 32 -27 67 -24 35 2 46 9
65 37 13 19 23 47 23 63 0 41 -48 88 -90 88 -22 0 -41 -9 -61 -29z"/>
<path d="M6753 7780 c-53 -22 -78 -111 -48 -170 50 -98 205 -43 205 72 0 42
-20 71 -64 92 -38 18 -60 19 -93 6z"/>
<path d="M5122 7707 c-32 -15 -59 -72 -72 -148 -5 -35 -10 -67 -10 -71 0 -3
-14 7 -30 22 -53 50 -187 79 -218 48 -18 -18 -14 -77 7 -123 10 -22 39 -63 65
-91 25 -29 46 -55 46 -59 0 -4 -44 -4 -97 -1 -113 8 -151 -5 -190 -63 -28 -42
-29 -86 -3 -128 25 -42 51 -58 130 -82 93 -27 147 -26 214 5 31 14 62 24 69
21 18 -6 -54 -71 -148 -132 -97 -63 -118 -86 -118 -125 0 -94 115 -90 128 5 4
28 15 48 38 68 18 16 57 51 87 79 64 59 72 51 44 -46 -11 -39 -18 -92 -18
-147 1 -140 47 -209 139 -209 52 0 101 26 126 67 21 33 22 43 16 185 -5 113
-4 149 5 146 6 -2 14 -10 16 -18 3 -7 0 -10 -7 -6 -19 12 0 -26 38 -77 40 -54
113 -115 148 -123 52 -13 113 41 113 99 0 60 -15 92 -64 141 -28 28 -65 60
-82 71 l-32 20 112 0 c90 0 117 3 139 18 40 26 60 62 60 109 0 86 -96 131
-241 114 l-56 -7 62 58 c92 87 116 162 66 208 -57 53 -148 40 -228 -32 l-41
-38 -5 85 c-3 47 -11 95 -18 107 -28 50 -133 78 -190 50z m109 -106 c26 -26
29 -36 29 -90 0 -33 -5 -82 -11 -108 -12 -57 -49 -135 -66 -141 -33 -10 -65
314 -34 351 20 25 49 21 82 -12z m-236 -111 c14 -5 28 -18 31 -27 3 -10 16
-43 29 -73 27 -65 40 -136 27 -144 -5 -3 -25 4 -45 14 -21 11 -40 19 -43 18
-4 -2 -18 13 -33 31 -14 19 -20 31 -12 26 8 -4 -7 21 -32 57 -26 36 -47 70
-47 76 0 28 74 41 125 22z m517 -7 c49 -45 -11 -130 -151 -212 -94 -56 -103
-39 -35 64 53 81 87 120 129 146 36 23 34 23 57 2z m-627 -282 c76 -9 175 -46
175 -66 0 -15 -109 -36 -227 -42 -77 -5 -97 -3 -119 11 -21 14 -25 23 -19 44
15 60 49 69 190 53z m792 -17 c19 -26 16 -58 -8 -80 -18 -17 -37 -19 -143 -19
-136 1 -209 16 -204 43 11 59 317 107 355 56z m-304 -165 c50 -26 165 -141
173 -175 8 -30 -1 -54 -20 -54 -8 0 -45 24 -82 54 -38 30 -73 52 -79 49 -5 -4
-7 -3 -3 2 5 5 -4 23 -18 42 -14 18 -32 49 -40 68 -14 33 -13 35 6 35 12 0 40
-10 63 -21z m-158 -66 c4 -21 10 -59 15 -85 5 -25 12 -81 16 -125 6 -71 4 -81
-16 -106 -17 -21 -27 -26 -44 -21 -34 10 -55 34 -62 69 -8 43 21 236 41 275
21 42 43 38 50 -7z"/>
<path d="M2070 7444 c-95 -34 -120 -61 -127 -142 -7 -79 24 -137 91 -171 44
-23 51 -24 108 -13 43 8 70 20 89 38 37 36 63 104 55 145 -7 38 -53 103 -86
122 -28 17 -107 29 -130 21z m90 -124 c42 -42 7 -114 -53 -108 -26 2 -36 11
-50 41 -18 35 -18 39 -3 62 21 32 77 34 106 5z"/>
<path d="M8093 7175 c0 -8 4 -12 9 -9 4 3 8 9 8 15 0 5 -4 9 -8 9 -5 0 -9 -7
-9 -15z"/>
<path d="M8073 7145 c0 -8 4 -12 9 -9 5 3 6 10 3 15 -9 13 -12 11 -12 -6z"/>
<path d="M2992 7105 c-69 -50 -69 -181 0 -229 32 -23 106 -20 146 4 66 40 83
146 33 202 -25 28 -35 32 -92 36 -48 2 -70 -1 -87 -13z"/>
<path d="M2267 7022 c-21 -23 -21 -45 -1 -88 14 -30 21 -34 53 -34 69 0 106
75 61 120 -26 26 -90 27 -113 2z"/>
<path d="M1971 6974 c-30 -38 -27 -70 9 -89 16 -8 35 -15 43 -15 23 0 47 35
47 68 0 61 -62 84 -99 36z"/>
<path d="M1767 6802 c-34 -38 -9 -102 39 -102 33 0 64 29 64 59 0 54 -68 82
-103 43z"/>
<path d="M1995 6689 c-11 -6 -31 -26 -45 -46 -19 -28 -24 -48 -24 -97 0 -33 3
-70 6 -81 76 -238 149 -355 336 -537 l99 -97 62 -151 c34 -84 60 -154 58 -157
-3 -2 -45 28 -93 67 -206 165 -373 196 -445 82 -16 -25 -29 -53 -29 -61 0 -40
24 -96 56 -131 73 -81 309 -175 518 -207 l119 -18 18 -40 c9 -22 46 -98 81
-170 34 -71 73 -151 85 -177 l22 -47 -61 59 c-115 110 -304 202 -415 203 -52
1 -67 -3 -97 -26 -77 -60 -68 -155 23 -240 27 -25 70 -56 97 -70 124 -62 330
-117 514 -135 l75 -7 45 -66 c25 -36 68 -94 96 -130 28 -35 59 -79 69 -98 l17
-34 -31 22 c-52 38 -233 119 -311 140 -95 27 -152 26 -207 0 -125 -60 -81
-215 79 -282 74 -31 187 -57 264 -62 44 -3 103 -8 132 -10 90 -9 57 10 -43 23
-231 31 -425 124 -425 203 0 61 57 110 128 111 37 0 147 -44 200 -80 15 -10
72 -38 127 -61 116 -49 143 -69 150 -108 7 -35 -2 -47 -39 -60 -17 -5 -32 -15
-34 -21 -3 -9 24 -12 100 -12 l104 0 64 -66 c80 -80 207 -182 320 -256 120
-78 296 -175 353 -194 45 -15 49 -15 67 1 44 39 21 65 -110 128 -158 75 -400
235 -528 349 -135 120 -292 300 -403 461 l-49 71 23 25 c60 66 73 106 32 99
-14 -3 -25 -1 -25 3 0 5 -8 9 -19 9 -26 0 -31 26 -31 160 0 241 81 430 185
430 24 0 42 -9 63 -29 33 -34 40 -67 37 -183 -1 -43 1 -78 5 -78 9 0 47 116
55 166 19 124 -93 239 -198 205 -72 -24 -142 -120 -165 -226 -32 -146 -35
-229 -16 -437 3 -38 1 -58 -6 -58 -19 0 -96 130 -195 330 -53 107 -101 200
-107 207 -7 9 -6 14 6 19 8 3 39 38 68 77 29 40 55 74 58 77 3 3 11 16 19 30
8 14 24 41 35 60 17 29 17 33 3 21 -9 -7 -17 -18 -17 -24 0 -5 -13 -23 -30
-38 -22 -22 -40 -29 -69 -29 -22 0 -43 5 -47 12 -13 21 -6 221 11 304 9 43 29
107 45 141 31 68 108 153 138 153 35 0 86 -44 100 -85 13 -38 12 -60 -3 -180
l-5 -40 21 45 c61 131 55 275 -13 311 -105 56 -204 9 -269 -127 -46 -96 -61
-201 -60 -420 1 -255 -7 -268 -74 -118 -26 60 -55 132 -65 159 -10 28 -39 100
-64 162 -45 112 -51 155 -25 189 6 7 -5 17 -30 29 -32 14 -41 24 -46 54 -4 20
-10 30 -12 23 -3 -6 -8 -10 -13 -7 -4 2 -10 -9 -14 -26 -6 -31 -7 -31 -48 -26
-34 5 -53 17 -110 74 -127 124 -185 222 -223 378 -25 101 -21 162 16 209 27
34 63 33 121 -3 53 -33 86 -85 130 -199 42 -108 52 -112 19 -6 -53 165 -99
249 -157 285 -33 20 -95 24 -129 8z m206 -1048 c100 -38 230 -132 298 -216 34
-42 61 -80 61 -84 0 -16 -65 -21 -162 -12 -86 7 -108 13 -190 53 -95 46 -150
91 -194 158 -23 35 -25 42 -14 74 6 20 19 41 28 46 24 15 107 6 173 -19z m320
-670 c47 -23 111 -61 142 -84 88 -67 195 -161 196 -173 3 -42 -188 -45 -306
-5 -104 35 -221 119 -264 187 -27 44 -19 78 24 105 46 29 105 21 208 -30z"/>
<path d="M4136 6638 c-31 -44 -8 -108 40 -108 34 0 50 38 38 88 -7 30 -14 38
-36 40 -18 2 -31 -4 -42 -20z"/>
<path d="M6176 6644 c-19 -18 -22 -94 -4 -112 17 -17 53 -15 69 4 16 19 15 90
-2 110 -15 19 -44 18 -63 -2z"/>
<path d="M2480 6508 c-29 -11 -70 -47 -70 -62 0 -6 5 -5 12 2 7 7 29 12 49 12
70 0 121 -65 135 -170 8 -59 24 -57 24 3 0 65 -25 156 -50 182 -30 32 -69 45
-100 33z"/>
<path d="M6170 6355 c-14 -17 -18 -76 -7 -117 6 -23 13 -28 37 -28 38 0 54 29
47 88 -7 62 -48 92 -77 57z"/>
<path d="M4130 6341 c-11 -22 -13 -74 -4 -108 8 -27 36 -38 64 -23 16 9 20 21
20 61 0 63 -13 89 -45 89 -14 0 -29 -8 -35 -19z"/>
<path d="M4696 6251 c-14 -15 -16 -74 -16 -483 l0 -465 23 -21 c23 -22 25 -22
490 -22 454 0 468 1 487 20 19 19 20 33 20 488 0 444 -1 470 -19 486 -16 15
-61 16 -494 15 -438 -1 -477 -2 -491 -18z m442 -253 l-3 -183 -182 -3 -183 -2
0 179 c0 134 3 180 13 184 6 2 90 5 185 6 l172 1 -2 -182z m472 -3 l1 -185
-190 0 -189 0 -2 185 -1 185 190 0 189 0 2 -185z m-472 -457 l-3 -183 -110 -3
c-60 -2 -143 0 -182 3 l-73 7 0 179 0 179 185 0 185 0 -2 -182z m472 20 c0
-90 -3 -173 -6 -185 -6 -23 -8 -23 -184 -23 l-177 0 -7 38 c-3 20 -6 103 -6
185 l0 147 190 0 190 0 0 -162z"/>
<path d="M8435 6192 c-114 -37 -141 -178 -50 -262 23 -22 36 -25 95 -25 54 0
75 4 96 21 66 49 90 124 60 183 -26 49 -91 91 -140 90 -23 -1 -50 -4 -61 -7z
m71 -52 c6 0 23 -11 38 -25 53 -49 20 -145 -49 -145 -46 0 -82 15 -95 41 -27
50 26 148 73 135 12 -3 27 -6 33 -6z"/>
<path d="M3330 6135 c-47 -48 -47 -96 -2 -136 45 -40 84 -39 128 5 45 45 47
95 5 137 -42 42 -87 40 -131 -6z"/>
<path d="M6922 6123 c-42 -20 -82 -82 -82 -125 1 -44 31 -110 64 -135 15 -12
46 -24 69 -28 23 -4 49 -11 58 -16 27 -14 113 -193 157 -324 51 -152 91 -333
99 -442 l6 -85 -24 12 c-52 28 -130 92 -153 126 -21 31 -24 45 -19 84 12 102
-74 180 -172 157 -62 -15 -60 -22 4 -19 53 3 60 1 80 -23 50 -64 48 -132 -6
-195 -28 -33 -89 -48 -125 -30 -22 12 -22 12 -5 -6 12 -13 38 -20 90 -24 69
-6 77 -9 192 -85 66 -43 123 -83 127 -89 4 -6 8 -29 8 -51 0 -48 14 -65 51
-65 29 0 39 15 39 59 0 21 26 51 129 148 l128 122 59 -1 c85 -1 154 41 154 93
0 13 -9 8 -34 -17 -27 -27 -42 -34 -72 -34 -61 0 -122 36 -146 85 -26 53 -19
86 27 132 40 40 20 45 -23 5 -41 -39 -49 -87 -26 -153 l19 -52 -29 -21 c-16
-12 -61 -54 -101 -93 -86 -88 -107 -93 -103 -25 1 26 -1 83 -5 127 l-8 80 35
55 c20 30 43 75 52 100 10 25 34 88 54 140 21 52 43 112 49 132 7 22 24 45 39
54 28 16 85 84 78 91 -2 3 -22 -5 -45 -16 -22 -12 -56 -21 -76 -21 -20 0 -54
9 -76 21 -23 11 -44 18 -47 14 -3 -3 0 -27 8 -53 24 -78 17 -136 -30 -247 -23
-55 -44 -110 -47 -122 -3 -13 -8 -23 -12 -23 -4 0 -23 54 -44 120 -21 66 -67
185 -103 264 l-65 143 26 48 c36 69 34 115 -10 163 -53 60 -145 79 -213 45z
m161 -23 c79 -62 32 -189 -75 -207 -29 -4 -41 0 -70 26 -54 47 -65 82 -43 132
10 22 30 47 44 54 40 22 113 19 144 -5z"/>
<path d="M4137 6042 c-19 -21 -22 -83 -7 -113 15 -26 56 -25 71 3 19 36 16 98
-6 114 -25 19 -39 18 -58 -4z"/>
<path d="M2360 6044 c0 -13 18 -39 24 -34 2 3 -2 14 -10 24 -8 11 -14 16 -14
10z"/>
<path d="M6167 6043 c-29 -50 -5 -147 35 -141 43 6 61 93 27 134 -12 15 -55
19 -62 7z"/>
<path d="M1685 5954 c-44 -48 -27 -103 38 -119 59 -15 132 49 107 95 -29 55
-105 67 -145 24z"/>
<path d="M3366 5769 c-40 -47 -33 -93 17 -114 36 -15 82 -3 97 25 19 35 12 77
-16 99 -37 29 -68 26 -98 -10z"/>
<path d="M4141 5736 c-35 -42 -19 -136 23 -136 31 0 44 17 52 67 5 34 2 45
-15 62 -24 24 -44 27 -60 7z"/>
<path d="M6172 5738 c-15 -15 -16 -92 -2 -119 24 -44 80 -2 80 60 0 58 -45 92
-78 59z"/>
<path d="M8306 5658 c-16 -14 -29 -38 -33 -60 -5 -34 -3 -38 16 -38 39 0 90
28 111 62 23 37 16 48 -33 55 -26 3 -41 -1 -61 -19z"/>
<path d="M1745 5470 c-3 -5 1 -10 9 -10 24 0 66 -70 66 -110 0 -26 3 -31 10
-20 5 8 10 32 10 53 0 29 -7 46 -29 68 -30 30 -55 37 -66 19z"/>
<path d="M1650 5428 c-40 -67 16 -148 103 -148 29 0 57 14 57 30 0 3 -26 4
-58 2 -66 -4 -92 11 -92 53 0 13 -2 30 -5 37 -3 8 4 24 15 36 11 12 16 22 10
22 -6 0 -19 -15 -30 -32z"/>
<path d="M4137 5432 c-29 -32 -16 -125 18 -138 39 -15 78 72 54 118 -22 42
-46 48 -72 20z"/>
<path d="M6170 5424 c-21 -24 -17 -102 7 -125 19 -19 20 -20 42 -2 28 23 41
104 21 128 -16 19 -54 19 -70 -1z"/>
<path d="M8184 5358 c-57 -70 -144 -224 -144 -253 0 -10 10 -15 29 -15 22 0
37 10 59 38 44 55 154 261 150 280 -7 37 -36 21 -94 -50z"/>
<path d="M7790 5356 c0 -2 8 -10 18 -17 15 -13 16 -12 3 4 -13 16 -21 21 -21
13z"/>
<path d="M8479 5305 c-21 -12 -27 -29 -46 -132 -13 -65 -26 -133 -29 -150 -5
-26 -3 -33 8 -33 9 0 21 7 28 15 7 8 17 12 24 8 6 -3 8 -3 4 2 -4 4 0 14 8 22
8 8 12 19 9 24 -4 5 -2 9 4 9 19 0 67 186 56 221 -8 23 -37 29 -66 14z"/>
<path d="M4137 5132 c-30 -33 -15 -123 22 -137 23 -9 61 39 61 76 0 18 -9 39
-25 54 -29 30 -37 31 -58 7z"/>
<path d="M6176 5134 c-30 -29 -17 -124 19 -137 48 -19 78 106 33 137 -28 20
-33 20 -52 0z"/>
<path d="M7991 5005 c-41 -64 -57 -113 -42 -128 16 -16 38 -1 79 52 37 49 39
66 13 100 l-19 25 -31 -49z"/>
<path d="M8156 4854 c-12 -31 -6 -71 14 -89 20 -18 21 -18 45 5 34 32 40 58
19 81 -21 23 -69 25 -78 3z"/>
<path d="M2001 4844 c-1 -7 -19 -21 -41 -32 -39 -19 -43 -32 -10 -32 22 0 64
45 57 62 -3 8 -6 8 -6 2z"/>
<path d="M6922 4823 c-12 -10 -24 -30 -27 -44 -5 -21 -1 -31 21 -48 15 -11 32
-21 38 -21 39 0 69 70 44 101 -21 27 -53 32 -76 12z"/>
<path d="M7420 4604 c-47 -7 -139 -29 -205 -49 -455 -138 -762 -343 -1007
-670 -104 -139 -162 -252 -277 -540 -80 -200 -81 -200 -146 -262 -36 -34 -65
-67 -65 -73 0 -16 46 -33 73 -26 13 3 47 24 76 47 50 40 53 41 84 28 23 -10
79 -13 192 -13 448 4 838 140 1235 433 214 158 498 498 625 751 61 121 126
291 120 311 -18 57 -144 80 -420 78 -110 -1 -238 -8 -285 -15z m508 -93 c40
-5 75 -11 78 -13 7 -8 -71 -182 -126 -278 -132 -235 -361 -511 -533 -642 -231
-177 -549 -330 -792 -382 -233 -51 -585 -63 -585 -21 0 22 116 317 154 393
112 222 294 437 513 605 126 97 466 253 647 299 174 43 458 60 644 39z"/>
<path d="M7607 4316 c-216 -111 -295 -158 -607 -364 -266 -175 -548 -375 -650
-461 -80 -67 -219 -201 -242 -234 l-20 -28 29 7 c52 13 97 41 278 176 99 74
201 149 228 167 l47 32 27 -20 c33 -27 58 -27 76 0 18 25 10 60 -14 66 -15 4
0 20 64 67 100 76 296 206 386 256 184 104 500 302 547 344 57 50 68 76 33 76
-11 0 -93 -38 -182 -84z"/>
<path d="M3987 4357 c-88 -28 -135 -98 -123 -182 14 -87 78 -145 164 -145 58
0 101 20 140 64 40 46 48 78 33 134 -16 62 -47 101 -95 123 -47 21 -66 22
-119 6z m128 -92 c29 -28 33 -79 10 -112 -18 -26 -87 -47 -121 -39 -95 24 -43
176 59 176 16 0 38 -10 52 -25z"/>
<path d="M6074 4351 c-62 -38 -81 -99 -50 -160 37 -70 153 -65 191 9 52 101
-49 209 -141 151z"/>
<path d="M2424 3936 c-29 -22 -10 -42 92 -99 49 -27 123 -74 165 -103 70 -49
161 -104 319 -193 33 -19 57 -38 52 -43 -4 -4 -31 -12 -60 -18 -139 -26 -227
-128 -141 -164 61 -26 172 15 266 98 l44 39 122 -61 c67 -33 146 -68 175 -77
58 -19 60 -35 4 -35 -83 0 -222 -97 -222 -155 0 -30 35 -55 76 -55 48 0 190
77 251 136 28 28 55 48 60 43 17 -17 164 -69 243 -87 l84 -18 -55 -23 c-84
-35 -129 -69 -145 -108 -13 -31 -13 -38 1 -59 12 -19 24 -24 60 -24 24 0 57 5
72 12 44 19 148 94 177 128 24 29 27 30 53 17 26 -13 120 -37 265 -68 67 -14
88 -4 88 41 0 32 -17 40 -125 60 -33 6 -71 13 -85 16 -14 3 -38 9 -55 14 -16
5 -43 11 -60 13 -32 4 -36 9 -94 138 -40 86 -66 117 -115 140 -52 24 -88 24
-109 1 -27 -30 -20 -63 29 -141 l45 -73 -33 7 c-51 11 -158 53 -203 80 -38 22
-42 28 -54 88 -17 87 -49 153 -99 204 -46 47 -78 59 -119 46 -23 -8 -28 -16
-31 -49 -2 -32 6 -53 43 -113 25 -41 43 -76 40 -79 -7 -7 -79 23 -180 76 l-90
47 -7 47 c-14 106 -74 238 -126 279 -28 22 -71 21 -100 -3 -20 -17 -10 -92 22
-159 14 -29 26 -54 26 -56 0 -17 -111 55 -320 207 -126 92 -201 118 -246 86z
m1060 -378 c8 -13 18 -36 22 -53 7 -30 7 -30 -14 -11 -12 10 -20 22 -17 26 2
4 -2 16 -10 26 -17 22 -19 34 -5 34 5 0 16 -10 24 -22z"/>
<path d="M7478 2713 l-38 -4 1 -187 c1 -103 4 -212 7 -242 l7 -55 120 4 c71 2
130 9 145 16 48 25 73 61 78 114 4 48 2 53 -32 87 l-37 37 22 30 c43 59 9 150
-68 183 -35 15 -147 24 -205 17z m180 -105 c19 -19 15 -66 -7 -78 -11 -5 -40
-10 -65 -10 l-46 0 0 43 c0 24 3 47 7 50 11 12 98 8 111 -5z m36 -226 c13 -46
-4 -60 -86 -68 l-68 -7 0 57 0 57 72 -3 72 -3 10 -33z"/>
<path d="M8494 2701 c-65 -30 -90 -75 -86 -155 3 -46 68 -101 138 -117 31 -7
66 -21 78 -30 20 -17 20 -20 6 -46 -25 -45 -68 -51 -135 -18 -54 26 -57 26
-71 9 -34 -45 -35 -52 -7 -73 37 -30 128 -54 176 -48 50 7 108 53 126 100 30
80 -12 148 -117 187 -102 38 -125 66 -84 103 23 21 91 22 118 2 27 -21 41 -18
60 10 20 31 8 49 -51 76 -51 24 -99 23 -151 0z"/>
<path d="M1806 2694 c-3 -9 -6 -117 -6 -240 l0 -224 44 0 43 0 7 53 c3 28 6
68 6 88 0 36 1 36 46 43 26 3 78 6 116 6 l69 0 -3 -92 -3 -93 41 -3 c39 -3 42
-1 48 29 3 17 6 125 6 240 l0 209 -22 0 c-66 -1 -68 -4 -68 -112 l0 -100 -31
6 c-17 3 -69 6 -115 6 l-84 0 0 63 c0 34 -3 79 -6 100 -6 35 -9 37 -44 37 -25
0 -40 -5 -44 -16z"/>
<path d="M2573 2698 c-46 -60 -203 -414 -203 -459 0 -5 20 -9 44 -9 43 0 45 1
61 44 l17 44 95 7 c53 4 98 4 103 -1 5 -5 16 -27 23 -49 13 -38 16 -40 58 -40
42 0 44 1 41 27 -4 39 -72 215 -131 341 -44 91 -55 107 -75 107 -13 0 -28 -6
-33 -12z m62 -201 c14 -37 25 -70 25 -72 0 -3 -27 -5 -60 -5 -33 0 -60 4 -60
9 0 15 60 144 65 139 2 -2 16 -34 30 -71z"/>
<path d="M2962 2473 l3 -238 43 -3 42 -3 0 153 1 153 32 -35 c17 -20 77 -89
131 -153 91 -108 102 -118 130 -115 l31 3 3 229 c3 247 3 246 -50 246 -28 0
-28 -1 -29 -67 -1 -38 -4 -106 -7 -153 l-7 -84 -86 104 c-111 135 -180 200
-214 200 l-25 0 2 -237z"/>
<path d="M3558 2473 c2 -170 6 -240 15 -246 19 -13 213 1 255 18 76 32 152
137 152 211 0 57 -29 129 -67 169 -55 57 -100 72 -238 79 l-120 6 3 -237z
m257 116 c84 -74 88 -167 10 -239 -22 -21 -38 -25 -101 -28 l-74 -4 0 128 c0
177 -1 174 71 174 51 0 63 -4 94 -31z"/>
<path d="M4137 2704 c-4 -4 -7 -112 -7 -241 l0 -233 45 0 45 0 0 131 c0 149 5
153 61 49 40 -76 86 -130 104 -124 8 3 45 54 82 112 l68 107 3 -137 3 -138 39
0 40 0 0 235 0 235 -34 0 c-29 0 -37 -6 -68 -52 -19 -29 -52 -84 -73 -123 -21
-38 -43 -76 -48 -82 -7 -9 -35 26 -101 125 -81 121 -94 137 -121 140 -17 2
-34 0 -38 -4z"/>
<path d="M4931 2635 c-44 -82 -171 -375 -171 -395 0 -7 7 -10 16 -6 9 3 31 6
49 6 30 0 35 4 47 43 l15 42 88 9 c103 11 113 7 136 -55 9 -24 22 -44 28 -43
6 1 27 2 46 3 24 1 35 6 35 17 0 8 -25 68 -54 133 -30 65 -64 141 -75 169 -44
110 -70 152 -95 152 -20 0 -32 -14 -65 -75z m111 -193 c3 -14 -7 -18 -54 -20
-32 -2 -58 -1 -58 2 0 2 14 35 31 73 l31 68 24 -53 c13 -29 25 -61 26 -70z"/>
<path d="M6608 2703 c-16 -2 -28 -8 -28 -12 0 -26 192 -455 208 -465 20 -12
37 5 79 77 37 64 130 297 148 370 7 26 6 27 -38 27 -39 0 -47 -3 -53 -22 -3
-13 -28 -75 -54 -138 -27 -63 -51 -124 -55 -135 -6 -19 -7 -20 -17 -1 -6 10
-28 62 -48 115 -80 202 -74 194 -142 184z"/>
<path d="M7173 2703 c-10 -3 -13 -60 -13 -233 l0 -228 40 -7 c21 -4 44 -4 50
0 12 7 13 125 3 333 l-6 142 -31 -1 c-17 0 -37 -3 -43 -6z"/>
<path d="M7948 2488 c-3 -123 -3 -231 0 -240 4 -16 20 -18 158 -18 l154 0 0
39 0 39 -110 7 -110 8 0 48 0 48 91 3 c101 3 117 13 105 61 -6 27 -7 27 -101
27 l-95 0 0 55 0 55 49 0 c26 0 76 3 110 6 l61 7 0 38 0 39 -154 0 -153 0 -5
-222z"/>
<path d="M5352 2468 l3 -233 70 -3 c161 -7 241 26 297 125 56 99 48 191 -25
270 -52 56 -108 73 -244 73 l-103 0 2 -232z m188 143 c33 -7 54 -20 82 -50 34
-35 38 -46 38 -90 0 -42 -5 -56 -32 -87 -40 -45 -82 -64 -143 -64 l-45 0 0
150 0 150 28 0 c15 -1 47 -5 72 -9z"/>
<path d="M5890 2488 c0 -117 3 -223 6 -236 6 -22 8 -22 153 -20 144 3 146 3
149 26 6 43 -13 52 -109 52 -88 0 -90 0 -100 27 -5 15 -9 38 -7 52 3 25 5 26
93 31 86 5 90 6 99 32 16 46 -4 58 -99 58 -91 0 -95 3 -95 78 l0 32 98 0 c107
0 122 6 122 52 l0 28 -155 0 -155 0 0 -212z"/>
<path d="M2330 1944 c0 -9 21 -51 47 -93 41 -67 47 -84 51 -143 4 -67 5 -68
33 -68 l29 0 0 65 c0 63 2 69 57 150 31 47 54 87 52 89 -2 3 -16 7 -30 11 -21
5 -29 1 -44 -22 -10 -15 -29 -43 -43 -62 l-25 -33 -39 61 c-30 48 -44 61 -63
61 -16 0 -25 -6 -25 -16z"/>
<path d="M2222 1793 l3 -158 25 0 25 0 3 151 c2 150 2 152 -20 158 -13 3 -26
6 -31 6 -4 0 -6 -71 -5 -157z"/>
<path d="M7397 1944 c-4 -4 -7 -41 -7 -83 l-1 -76 -72 78 c-40 43 -77 77 -83
77 -20 0 -24 -27 -24 -156 l0 -124 24 0 c30 0 41 37 31 113 l-6 52 33 -35 c18
-20 54 -59 80 -88 25 -29 49 -49 51 -45 3 5 6 71 8 148 3 120 2 140 -11 143
-9 1 -19 0 -23 -4z"/>
<path d="M7996 1934 c-3 -9 -6 -48 -6 -87 l-1 -72 -37 45 c-84 101 -111 126
-122 110 -5 -8 -10 -68 -10 -132 0 -93 3 -120 16 -132 28 -29 34 -17 34 68 l0
84 36 -31 c20 -18 54 -58 76 -90 22 -32 45 -56 51 -54 12 4 13 15 9 202 -2 96
-4 105 -21 105 -10 0 -22 -7 -25 -16z"/>
<path d="M8174 1940 c-32 -13 -82 -77 -90 -114 -9 -51 6 -85 59 -130 43 -36
52 -39 99 -38 37 1 56 6 65 18 14 19 18 110 6 117 -5 3 -29 8 -55 12 -57 9
-63 -6 -23 -53 31 -37 32 -52 1 -52 -31 0 -70 32 -86 70 -10 24 -10 36 0 60
18 44 36 54 91 51 86 -4 102 41 20 55 -20 3 -43 7 -51 9 -8 2 -24 0 -36 -5z"/>
<path d="M1920 1789 l0 -151 78 7 c86 8 114 21 142 68 33 53 35 91 8 139 -32
59 -86 88 -165 88 l-63 0 0 -151z m138 71 c49 -22 57 -36 48 -85 -8 -40 -37
-63 -90 -72 l-36 -6 0 92 c0 104 2 106 78 71z"/>
<path d="M3170 1794 l0 -145 73 7 c62 5 77 11 106 38 68 63 74 137 15 199 -34
37 -63 47 -135 47 l-59 0 0 -146z m133 74 c50 -26 61 -77 26 -122 -16 -20 -29
-26 -60 -26 l-39 0 0 80 c0 79 0 80 26 80 14 0 35 -5 47 -12z"/>
<path d="M3463 1796 l0 -145 84 -3 83 -3 0 28 c0 26 -2 27 -55 27 -54 0 -55 1
-55 29 0 31 18 41 73 41 22 0 27 4 27 25 0 23 -3 25 -50 25 l-50 0 0 36 0 36
56 -4 c55 -3 57 -2 60 25 l3 27 -88 0 -88 0 0 -144z"/>
<path d="M3765 1930 c-11 -4 -37 -26 -58 -49 -44 -48 -47 -83 -16 -147 35 -74
101 -100 174 -70 28 12 35 21 35 42 0 23 -3 25 -22 19 -13 -5 -40 -8 -62 -9
-30 0 -44 6 -62 28 -34 38 -31 71 10 112 37 37 57 42 76 19 18 -22 57 -19 63
5 11 42 -79 75 -138 50z"/>
<path d="M4035 1926 c-17 -7 -45 -28 -63 -45 -27 -27 -32 -40 -32 -79 0 -85
55 -144 135 -146 50 -1 87 21 123 74 41 61 18 136 -57 187 -38 26 -63 28 -106
9z m86 -56 c20 -11 49 -60 49 -84 0 -8 -10 -27 -23 -42 -18 -20 -33 -27 -64
-28 -54 -1 -83 24 -83 73 0 41 5 51 40 74 28 19 53 21 81 7z"/>
<path d="M4270 1804 c5 -131 6 -137 28 -145 21 -8 22 -6 22 41 0 66 18 65 60
0 33 -51 37 -54 64 -44 24 9 20 24 -16 61 l-33 34 33 30 c39 36 43 83 11 118
-28 30 -60 41 -122 41 l-52 0 5 -136z m134 60 c8 -22 -11 -53 -40 -64 -40 -16
-44 -13 -44 35 l0 45 39 0 c26 0 41 -5 45 -16z"/>
<path d="M4576 1888 c-13 -29 -40 -88 -60 -132 -20 -43 -36 -82 -36 -86 0 -11
36 -19 48 -11 5 3 12 17 13 31 4 23 9 25 62 28 l58 3 15 -37 c12 -30 19 -35
37 -30 12 3 25 6 29 6 19 0 -107 271 -130 278 -7 2 -22 -18 -36 -50z m64 -112
c0 -6 -13 -13 -30 -14 -35 -3 -35 -4 -14 49 l17 41 13 -32 c8 -18 14 -38 14
-44z"/>
<path d="M4732 1913 c3 -24 8 -28 39 -31 l36 -3 7 -107 c7 -102 15 -127 41
-119 6 2 11 53 13 116 l3 113 34 -4 c34 -4 35 -3 35 29 l0 33 -106 0 -105 0 3
-27z"/>
<path d="M5182 1920 c-87 -53 -95 -168 -17 -240 21 -20 37 -25 80 -25 46 0 58
4 85 30 85 81 78 165 -18 226 -54 34 -85 36 -130 9z m122 -65 c35 -32 35 -82
0 -124 -34 -41 -75 -42 -115 -2 -83 83 29 206 115 126z"/>
<path d="M5618 1869 c-2 -37 -7 -71 -11 -75 -3 -4 -36 25 -73 65 -36 39 -72
71 -80 71 -11 0 -14 -23 -14 -119 0 -133 4 -151 31 -151 17 0 19 8 19 78 l1
77 80 -84 c63 -66 83 -81 90 -70 5 8 8 71 7 141 -2 122 -3 127 -24 131 -21 4
-22 0 -26 -64z"/>
<path d="M6253 1895 c4 -26 7 -90 7 -141 0 -87 1 -94 20 -94 17 0 20 7 20 39
0 37 1 39 39 45 94 15 130 93 72 158 -26 29 -35 32 -96 36 l-68 5 6 -48z m117
-29 c19 -24 8 -58 -23 -69 -38 -12 -51 2 -43 47 6 29 11 36 30 36 13 0 29 -7
36 -14z"/>
<path d="M6750 1899 c0 -24 -3 -88 -7 -141 l-6 -98 26 0 c24 0 27 4 27 34 0
36 19 60 41 51 8 -3 27 -26 41 -50 15 -25 35 -45 43 -45 29 0 27 29 -4 67
l-31 38 30 23 c41 32 41 79 1 124 -25 29 -35 32 -95 36 l-66 4 0 -43z m124
-41 c15 -25 -4 -52 -39 -56 -37 -5 -48 9 -40 48 6 28 10 31 37 28 17 -2 36
-11 42 -20z"/>
<path d="M6990 1797 l0 -143 58 1 c113 4 112 4 112 25 0 15 -7 20 -29 20 -16
0 -43 3 -60 6 -25 5 -31 11 -31 33 0 25 2 26 50 23 50 -4 50 -4 50 27 0 31 -1
31 -50 31 l-50 0 0 36 0 37 55 -6 55 -6 0 30 0 29 -80 0 -80 0 0 -143z"/>
<path d="M7470 1912 c0 -26 3 -28 33 -24 l34 4 6 -69 c4 -37 7 -89 7 -115 0
-41 3 -48 20 -48 19 0 20 7 20 115 l0 115 33 -2 c28 -3 32 0 35 25 l3 27 -95
0 -96 0 0 -28z"/>
<path d="M7700 1816 c0 -138 4 -156 31 -156 18 0 19 9 19 140 l0 140 -25 0
-25 0 0 -124z"/>
<path d="M4990 1882 c0 -27 3 -90 6 -140 6 -81 9 -92 25 -92 18 0 19 10 19
140 l0 140 -25 0 c-23 0 -25 -3 -25 -48z"/>
<path d="M6537 1913 c-3 -10 -24 -69 -47 -131 -23 -63 -39 -116 -36 -119 11
-11 37 7 54 37 16 29 20 30 62 24 47 -7 80 -28 80 -51 0 -14 36 -19 43 -5 3 4
-23 63 -57 132 -59 121 -87 153 -99 113z m41 -98 c19 -41 15 -53 -13 -47 -26
5 -29 12 -19 50 8 29 18 28 32 -3z"/>
<path d="M2813 1821 c-22 -14 -34 -51 -23 -71 18 -34 48 -44 76 -25 26 17 33
65 12 82 -18 14 -54 22 -65 14z"/>
<path d="M5892 1788 c-7 -7 -12 -30 -12 -52 0 -23 -7 -65 -14 -93 -8 -29 -11
-55 -7 -58 13 -7 46 35 76 95 15 30 36 65 47 77 11 12 17 26 13 32 -9 15 -88
14 -103 -1z"/>
<path d="M2660 1591 c-6 -12 -7 -21 -1 -21 10 0 24 30 17 37 -2 3 -9 -5 -16
-16z"/>
<path d="M7593 1468 c-6 -7 -24 -49 -41 -93 -16 -44 -40 -104 -53 -133 -20
-46 -21 -54 -9 -62 22 -14 34 -7 44 28 9 31 10 32 67 32 56 0 58 -1 64 -30 5
-23 12 -30 31 -30 13 0 24 5 24 10 0 20 -92 265 -104 278 -10 11 -15 11 -23 0z
m37 -165 c0 -7 -11 -13 -25 -13 -27 0 -31 10 -14 42 11 21 12 21 25 3 8 -10
14 -25 14 -32z"/>
<path d="M3023 1452 c-3 -9 -28 -70 -55 -136 -26 -65 -48 -125 -48 -133 0 -10
9 -13 27 -11 21 2 29 10 35 36 8 31 10 32 62 32 50 0 54 -2 66 -30 12 -28 42
-41 54 -22 4 8 -53 161 -88 234 -20 42 -44 56 -53 30z m42 -122 c20 -39 20
-40 -15 -40 -16 0 -30 4 -30 10 0 10 22 60 26 60 2 0 10 -13 19 -30z"/>
<path d="M3232 1326 c3 -125 5 -141 21 -144 14 -3 17 4 17 37 0 37 2 41 25 41
18 0 31 -11 51 -46 20 -33 32 -44 47 -42 32 5 30 21 -8 65 l-35 41 26 16 c34
23 48 62 34 97 -19 46 -45 61 -115 68 l-66 7 3 -140z m112 65 c28 -30 -3 -71
-53 -71 -18 0 -21 6 -21 45 0 43 1 45 28 45 16 0 36 -8 46 -19z"/>
<path d="M3480 1325 l0 -145 31 0 31 0 -7 86 c-7 83 -6 85 12 75 11 -5 37 -32
58 -58 70 -87 98 -114 107 -100 4 6 8 72 8 145 l0 132 -25 0 c-24 0 -25 -3
-27 -67 0 -38 -1 -73 -1 -79 0 -5 -32 22 -72 62 -39 39 -81 77 -93 83 l-22 12
0 -146z"/>
<path d="M4490 1448 c-89 -45 -115 -131 -61 -205 71 -98 197 -77 216 37 4 23
5 43 2 46 -2 3 -22 8 -42 11 -30 5 -41 2 -51 -11 -16 -23 -7 -46 17 -46 23 0
26 -35 5 -43 -20 -8 -75 9 -97 29 -28 26 -24 78 9 114 15 17 36 31 47 30 11 0
38 -2 59 -3 51 -3 57 16 14 43 -42 26 -63 25 -118 -2z"/>
<path d="M5226 1410 c-7 -58 -8 -60 -35 -60 -16 0 -43 -3 -60 -6 l-31 -6 0 61
c0 57 -1 61 -24 61 -22 0 -23 -4 -29 -82 -4 -46 -7 -109 -7 -140 0 -58 0 -58
30 -58 30 0 30 1 30 54 l0 53 46 7 c75 10 73 12 76 -56 3 -57 5 -63 26 -66 22
-3 22 -3 22 141 0 123 -2 146 -16 151 -9 3 -17 6 -19 6 -1 0 -5 -27 -9 -60z"/>
<path d="M5630 1325 c0 -138 1 -145 20 -145 20 0 23 17 24 138 0 29 8 28 28
-6 9 -15 25 -36 36 -46 20 -17 21 -17 38 11 10 15 29 39 42 53 l23 24 -2 -89
c-1 -83 0 -90 17 -87 11 2 20 5 22 7 8 7 14 187 8 228 -6 36 -11 47 -25 47
-18 0 -101 -100 -101 -122 0 -5 -16 14 -36 43 -37 55 -69 89 -85 89 -5 0 -9
-65 -9 -145z"/>
<path d="M7724 1461 c-2 -2 -4 -15 -4 -28 0 -19 5 -23 29 -23 l29 0 7 -97 c8
-130 8 -127 27 -131 14 -3 17 11 23 91 4 52 4 104 0 117 -7 20 -5 22 25 15 34
-8 50 4 50 37 0 14 -14 17 -91 20 -50 2 -93 1 -95 -1z"/>
<path d="M7968 1459 c-15 -9 -18 -26 -18 -119 0 -115 10 -160 35 -160 13 0 15
22 15 145 0 80 -3 145 -7 145 -5 0 -16 -5 -25 -11z"/>
<path d="M8154 1459 c-18 -5 -48 -27 -68 -49 -31 -35 -36 -47 -36 -90 0 -43 5
-55 35 -89 60 -66 148 -61 213 13 40 45 43 97 10 146 -43 63 -96 87 -154 69z
m75 -64 c74 -38 43 -155 -41 -155 -37 1 -59 14 -76 47 -19 35 -14 63 17 94 33
32 58 36 100 14z"/>
<path d="M2724 1383 c3 -42 6 -105 6 -140 0 -56 2 -63 20 -63 15 0 21 9 26 39
5 34 10 40 38 45 80 15 128 73 105 128 -21 51 -54 68 -132 68 l-70 0 7 -77z
m124 15 c20 -20 14 -56 -13 -74 -38 -25 -55 -12 -55 41 0 43 1 45 28 45 15 0
33 -5 40 -12z"/>
<path d="M3770 1435 c0 -25 3 -26 38 -23 l37 3 3 -104 c3 -99 13 -138 33 -125
5 3 9 54 9 115 l0 109 36 0 c31 0 35 3 32 23 -3 21 -8 22 -95 25 l-93 3 0 -26z"/>
<path d="M4010 1348 c0 -124 6 -158 25 -158 20 0 25 25 25 128 0 116 -6 142
-31 142 -18 0 -19 -9 -19 -112z"/>
<path d="M4134 1448 c-4 -7 -8 -63 -8 -126 0 -88 3 -115 15 -123 26 -16 29
-10 29 66 0 41 4 75 9 75 5 0 35 -32 66 -70 32 -39 66 -75 76 -81 24 -13 28 4
31 154 l3 117 -25 0 c-26 0 -26 -1 -22 -64 7 -105 -3 -107 -83 -16 -39 44 -73
80 -77 80 -4 0 -10 -5 -14 -12z"/>
<path d="M5364 1416 c-38 -37 -44 -49 -44 -85 0 -124 123 -200 201 -125 62 59
76 129 39 189 -28 45 -62 65 -111 65 -36 0 -48 -6 -85 -44z m144 -42 c29 -33
29 -78 -3 -109 -48 -49 -123 -23 -140 47 -6 23 -1 34 29 64 30 30 41 35 64 30
15 -4 37 -18 50 -32z"/>
<path d="M5940 1320 l0 -140 80 0 c79 0 80 0 80 25 0 24 -3 25 -56 25 -54 0
-55 0 -52 28 3 23 8 28 43 32 35 4 40 8 40 30 0 23 -3 25 -36 22 -33 -3 -37
-1 -42 25 -7 39 -2 43 54 43 46 0 49 2 49 25 0 25 -1 25 -80 25 l-80 0 0 -140z"/>
<path d="M6417 1453 c-4 -3 -7 -66 -7 -140 l0 -133 25 0 c25 0 25 1 25 86 l0
86 76 -92 c51 -61 79 -89 86 -82 6 6 11 70 12 144 1 131 1 133 -21 136 -22 3
-23 1 -24 -85 l0 -88 -22 30 c-30 41 -129 145 -137 145 -4 0 -10 -3 -13 -7z"/>
<path d="M6716 1429 c-44 -52 -34 -88 35 -126 50 -27 61 -50 35 -72 -11 -9
-21 -7 -48 9 -41 25 -48 25 -48 1 0 -28 47 -61 87 -61 72 0 112 96 58 138 -13
11 -38 25 -54 32 -36 15 -45 34 -25 55 18 17 30 19 39 5 9 -15 55 -12 55 3 0
24 -36 47 -72 47 -28 0 -42 -7 -62 -31z"/>
<path d="M6910 1336 c0 -138 4 -156 31 -156 15 0 19 7 19 40 0 38 2 40 42 50
45 13 98 58 98 86 0 30 -40 82 -72 93 -17 6 -51 11 -74 11 l-44 0 0 -124z
m104 58 c22 -21 20 -51 -3 -64 -40 -21 -51 -13 -51 35 0 38 3 45 19 45 11 0
27 -7 35 -16z"/>
<path d="M7140 1316 c0 -117 3 -146 14 -146 31 0 37 27 34 156 -3 125 -4 129
-25 132 -23 3 -23 3 -23 -142z"/>
<path d="M7255 1330 c-4 -71 -4 -134 0 -140 3 -5 15 -10 25 -10 15 0 19 9 22
42 2 23 8 43 13 45 6 2 28 -19 49 -47 39 -51 53 -59 73 -39 9 9 4 23 -17 57
l-29 46 30 33 c34 39 34 44 14 88 -20 40 -51 55 -119 55 l-53 0 -8 -130z m119
64 c32 -32 11 -64 -41 -64 -28 0 -33 3 -33 24 0 27 24 56 45 56 7 0 21 -7 29
-16z"/>
<path d="M8374 1404 c-13 -107 6 -223 37 -224 10 0 22 136 14 152 -3 7 29 -24
72 -70 43 -45 83 -82 89 -82 18 0 24 37 24 163 l0 117 -25 0 c-23 0 -24 -3
-27 -77 l-3 -78 -78 78 c-43 42 -82 77 -87 77 -5 0 -12 -25 -16 -56z"/>
<path d="M6290 1316 l0 -136 25 0 26 0 -3 133 c-3 128 -4 132 -25 135 -23 3
-23 3 -23 -132z"/>
<path d="M4752 1253 c-6 -16 -15 -44 -20 -63 -6 -19 -13 -43 -17 -52 -5 -14
-2 -18 12 -18 31 0 60 28 79 75 16 43 16 46 -1 65 -25 27 -41 25 -53 -7z"/>
</g>
</svg>
